<svg width="38" height="50" viewBox="0 0 38 50" fill="none" xmlns="http://www.w3.org/2000/svg">
<g clip-path="url(#clip0_1_94)">
<path d="M25.9199 24.96H33.7499L24.4499 37.38L30.4899 45.4701C34.6999 42.08 37.3999 36.88 37.3999 31.05C37.3999 20.83 29.1199 12.55 18.8999 12.55C16.8899 12.55 14.5999 12.91 12.8199 13.56L21.1199 24.72L11.8999 37.14H4.0499L13.3499 24.72L7.3099 16.63C3.0999 20.03 0.399902 25.23 0.399902 31.05C0.399902 41.27 8.6799 49.55 18.8999 49.55C20.9099 49.55 23.1399 49.2001 24.9499 48.5401L16.6799 37.38L25.9199 24.96Z" fill="#EA0F30"/>
<path d="M20.03 9.67C21.65 9.78 24.75 9.73 27.07 7.98C30.34 5.51 30.79 0.610004 30.79 0.610004C30.79 0.610004 25.94 -0.289996 22.67 2.18C20.64 3.71 19.7 6.18 19.27 7.83C19.01 8.84 18.95 9.54 18.95 9.54C18.95 9.54 19.37 9.62 20.03 9.67Z" fill="#38B556"/>
</g>
<defs>
<clipPath id="clip0_1_94">
<rect width="37.8" height="50" fill="white"/>
</clipPath>
</defs>
</svg>

